<svg xmlns="http://www.w3.org/2000/svg" width="430" height="430" style="width:100%;height:100%;transform:translate3d(0,0,0);content-visibility:visible" viewBox="0 0 430 430"><defs><clipPath id="w"><path d="M0 0h430v430H0z"/></clipPath><clipPath id="G"><path d="M0 0h430v430H0z"/></clipPath><clipPath id="i"><path d="M0 0h430v430H0z"/></clipPath><clipPath id="j"><path d="M0 0h416v416H0z"/></clipPath><clipPath id="D"><path d="M0 0h430v430H0z"/></clipPath><clipPath id="n"><path d="M0 0h430v430H0z"/></clipPath><clipPath id="r"><path d="M0 0h416v416H0z"/></clipPath><clipPath id="A"><path d="M0 0h430v430H0z"/></clipPath><clipPath id="s"><path d="M0 0h430v430H0z"/></clipPath><clipPath id="t"><path d="M0 0h430v430H0z"/></clipPath><clipPath id="u"><path d="M0 0h430v430H0z"/></clipPath><clipPath id="x"><path d="M0 0h430v430H0z"/></clipPath><clipPath id="v"><path d="M0 0h430v430H0z"/></clipPath><mask id="m" mask-type="alpha"><use xmlns:ns1="http://www.w3.org/1999/xlink" ns1:href="#a"/></mask><mask id="I" mask-type="alpha"><use xmlns:ns2="http://www.w3.org/1999/xlink" ns2:href="#b"/></mask><mask id="p" mask-type="alpha"><use xmlns:ns3="http://www.w3.org/1999/xlink" ns3:href="#c"/></mask><mask id="E" mask-type="alpha"><use xmlns:ns4="http://www.w3.org/1999/xlink" ns4:href="#d"/></mask><mask id="C" mask-type="alpha"><use xmlns:ns5="http://www.w3.org/1999/xlink" ns5:href="#e"/></mask><mask id="z" mask-type="alpha"><use xmlns:ns6="http://www.w3.org/1999/xlink" ns6:href="#h"/></mask><filter id="H" width="300%" height="300%" x="-100%" y="-100%"><feGaussianBlur result="filter_result_0"/></filter><filter id="F" width="300%" height="300%" x="-100%" y="-100%"><feGaussianBlur result="filter_result_0" stdDeviation="52.5 52.5"/></filter><filter id="B" width="300%" height="300%" x="-100%" y="-100%"><feGaussianBlur result="filter_result_0"/></filter><filter id="y" width="300%" height="300%" x="-100%" y="-100%"><feGaussianBlur result="filter_result_0"/></filter><g id="b" fill-opacity="0" stroke-linecap="round" stroke-linejoin="round" clip-path="url(#i)" style="display:none"><g clip-path="url(#j)" mask="url(#m)" style="display:none"><path class="secondary" style="display:none"/><path class="secondary" style="display:none"/></g><path class="primary" style="display:none"/></g><g id="d" clip-path="url(#n)" style="display:block"><g mask="url(#p)" style="display:block"><g fill-opacity="0" stroke="#08A88A" stroke-linecap="round" stroke-linejoin="round" stroke-width="12" clip-path="url(#r)" transform="translate(11.5 6.5)"><path d="M-30.231 15.268c-5.611 4.584-9.194 11.559-9.194 19.37V142.5h79.29V34.638c0-7.813-3.583-14.789-9.197-19.373" class="secondary" style="display:block" transform="translate(205.19 248.312)"/><path d="M30.668 15.265C76.082 10.349 96.69-8.32 96.69-55.996c0-19.521-4.479-34.179-12.678-45.021 1.075-2.415 10.481-24.759-1.551-41.318-18.752-1.972-32.658 14.265-35.949 18.508-13.351-3.471-28.954-4.852-46.292-4.852-17.304 0-32.918 1.376-46.307 4.832-3.319-4.275-17.212-20.457-35.934-18.488-11.675 16.067-3.165 37.581-1.668 41.05-8.396 10.868-13.001 25.607-13.001 45.289 0 47.686 20.923 66.353 66.459 71.264" class="secondary" style="display:block" transform="translate(205.19 248.313)"/><path d="M41.591-4.446c-48.042 14.569-39.815-7.559-65-26.5-12.589-9.468-23.901 9.026-15.5 15.5 22.087 17.021 15.981 26.47 34 40.5 15.517 12.082 35.167 7.667 46.5 3.5" class="secondary" style="display:block" transform="translate(123.673 295.253)"/></g></g><path fill-opacity="0" stroke="#121331" stroke-linecap="round" stroke-linejoin="round" stroke-width="12" d="M0-167.5c92.443 0 167.5 75.057 167.5 167.5S92.443 167.5 0 167.5-167.5 92.443-167.5 0-92.443-167.5 0-167.5" class="primary" style="display:block" transform="rotate(-45 367.028 -152.028)"/></g><g id="e" fill-opacity="0" stroke-linecap="round" stroke-linejoin="round" clip-path="url(#s)" style="display:none"><g clip-path="url(#t)" style="display:none"><g style="display:none"><path class="secondary"/><path class="secondary"/><path class="secondary"/></g><path class="primary" style="display:none"/><path class="primary" style="display:none"/><path class="primary" style="display:none"/><path class="primary" style="display:none"/><path class="primary" style="display:none"/></g><g clip-path="url(#u)" style="display:none"><g style="display:none"><path class="secondary"/><path class="secondary"/><path class="secondary"/></g><path class="primary" style="display:none"/><path class="primary" style="display:none"/><path class="primary" style="display:none"/><path class="primary" style="display:none"/><path class="primary" style="display:none"/></g></g><g id="h" fill-opacity="0" stroke-linecap="round" stroke-linejoin="round" clip-path="url(#v)" style="display:none"><g style="display:none"><path class="secondary"/><path class="secondary"/><path class="secondary"/></g><path class="primary" style="display:none"/><path class="primary" style="display:none"/><path class="primary" style="display:none"/><path class="primary" style="display:none"/><path class="primary" style="display:none"/></g><path id="a" style="display:none"/><path id="c" fill="red" d="M0-167.5c92.443 0 167.5 75.057 167.5 167.5S92.443 167.5 0 167.5-167.5 92.443-167.5 0-92.443-167.5 0-167.5" style="display:block" transform="rotate(-45 367.028 -152.028)"/></defs><g clip-path="url(#w)"><g clip-path="url(#x)" filter="url(#y)" mask="url(#z)" style="display:none"><g class="design"><path class="primary"/></g><g class="design"><path class="secondary"/></g></g><g clip-path="url(#A)" filter="url(#B)" mask="url(#C)" style="display:none"><g class="design"><path class="primary"/></g><g class="design"><path class="secondary"/></g></g><g clip-path="url(#D)" mask="url(#E)" style="display:block"><g filter="url(#F)" transform="rotate(-94 238.295 -17.065)scale(2.4)"><g class="design"><path fill="#4BE1EC" d="M0-250c137.975 0 250 112.025 250 250S137.975 250 0 250-250 137.975-250 0-137.975-250 0-250" class="primary"/></g><g class="design"><path fill="#CB5EEE" d="M113.242-295.384c97.478 0 176.5 79.022 176.5 176.5s-79.022 176.5-176.5 176.5c-43.948 0-74.396-34.057-105.29-60.631-37.631-32.369-71.21-62.338-71.21-115.869 0-97.478 79.022-176.5 176.5-176.5" class="secondary"/></g></g></g><g clip-path="url(#G)" filter="url(#H)" mask="url(#I)" style="display:none"><g class="design"><path class="primary"/></g><g class="design"><path class="secondary"/></g></g></g></svg>